PathFileType	4	(X/Y/Z)	/Users/itak/Documents/Research/Walk-IL/dataset/trc/00312_00010.trc
DataRate	CameraRate	NumFrames	NumMarkers	Units	OrigDataRate	OrigDataStartFrame	OrigNumFrames
100.000000	100.000000	4	53	mm	100.000000	203	543
Frame#	Time	RPSI			LPSI			L3			STRN			T10			C7			CLAV			RBAK			LBAK			LSHO			LUPA			LAEL			LAOL			LWTS			LWPS			LFRA			LIFD			LHPS			LHTS			RSHO			RUPA			RAEL			RAOL			RWTS			RWPS			RFRA			RIFD			RHTS			RHPS			RBHD			LFHD			RFHD			LBHD			LHIP			RHIP			RASI			LASI			LKNE			LTHI			LANK			LTIP			LTOE			LMT1			LMT5			LHEE			RKNE			RTHI			RANK			RTIP			RTOE			RMT1			RMT5			RHEE			
		X1	Y1	Z1	X2	Y2	Z2	X3	Y3	Z3	X4	Y4	Z4	X5	Y5	Z5	X6	Y6	Z6	X7	Y7	Z7	X8	Y8	Z8	X9	Y9	Z9	X10	Y10	Z10	X11	Y11	Z11	X12	Y12	Z12	X13	Y13	Z13	X14	Y14	Z14	X15	Y15	Z15	X16	Y16	Z16	X17	Y17	Z17	X18	Y18	Z18	X19	Y19	Z19	X20	Y20	Z20	X21	Y21	Z21	X22	Y22	Z22	X23	Y23	Z23	X24	Y24	Z24	X25	Y25	Z25	X26	Y26	Z26	X27	Y27	Z27	X28	Y28	Z28	X29	Y29	Z29	X30	Y30	Z30	X31	Y31	Z31	X32	Y32	Z32	X33	Y33	Z33	X34	Y34	Z34	X35	Y35	Z35	X36	Y36	Z36	X37	Y37	Z37	X38	Y38	Z38	X39	Y39	Z39	X40	Y40	Z40	X41	Y41	Z41	X42	Y42	Z42	X43	Y43	Z43	X44	Y44	Z44	X45	Y45	Z45	X46	Y46	Z46	X47	Y47	Z47	X48	Y48	Z48	X49	Y49	Z49	X50	Y50	Z50	X51	Y51	Z51	X52	Y52	Z52	X53	Y53	Z53	

204	2.03	-951.4277954101562	960.8738403320312	-631.4284057617188	-934.5332641601562	960.6244506835938	-805.4701538085938	-919.7857666015625	1035.377685546875	-732.8450317382812	-646.5916137695312	1183.842041015625	-695.519775390625	-913.4463500976562	1151.029418945312	-745.2058715820312	-835.8818359375	1388.775146484375	-756.4400634765625	-693.68896484375	1291.985107421875	-712.2788696289062	-919.5817260742188	1261.720458984375	-692.2528076171875	-830.4197998046875	1347.848388671875	-861.0562744140625	-731.0274047851562	1343.985961914062	-890.7520751953125	-749.0108642578125	1227.762573242188	-969.1804809570312	-749.3320922851562	1033.266845703125	-984.82470703125	-818.947998046875	1003.782897949219	-939.0174560546875	-563.7206420898438	950.142333984375	-899.4190063476562	-565.689208984375	900.285888671875	-953.3020629882812	-683.463623046875	964.9879150390625	-978.3118286132812	-416.6695251464844	851.341796875	-855.0079956054688	-496.4165649414062	855.2158813476562	-928.5656127929688	-469.806640625	909.7906494140625	-899.720458984375	-811.0520629882812	1368.191162109375	-586.0397338867188	-846.267333984375	1319.79150390625	-524.0599365234375	-952.3270874023438	1079.550903320312	-479.0162658691406	-945.7738037109375	1064.972290039062	-572.400390625	-914.0999145507812	832.319580078125	-474.9936828613281	-979.63916015625	851.2755126953125	-424.5085754394531	-956.2212524414062	1011.667236328125	-453.7388000488281	-970.86083984375	654.1651611328125	-468.0145874023438	-931.7249145507812	717.0151977539062	-443.4427490234375	-993.4193725585938	738.2030029296875	-413.8300476074219	-840.9920654296875	1532.131713867188	-698.4708251953125	-636.0411987304688	1581.134155273438	-732.4476928710938	-677.7841186523438	1577.516357421875	-648.7166137695312	-775.8701171875	1527.2451171875	-828.8912353515625	-865.5635986328125	905.43408203125	-897.1939697265625	-857.2568359375	911.3368530273438	-521.962646484375	-736.527587890625	908.3113403320312	-588.392578125	-728.6295776367188	896.4788208007812	-840.5714721679688	-927.2808837890625	451.2567749023438	-851.7652587890625	-888.8065795898438	587.2822265625	-875.4724731445312	-1157.8935546875	60.51660537719727	-828.046875	-1046.786865234375	251.9947814941406	-851.0010375976562	-954.1241455078125	37.38076400756836	-769.5515747070312	-1025.10595703125	32.17818832397461	-727.9616088867188	-1038.2216796875	42.63048934936523	-840.4163818359375	-1205.941528320312	66.90369415283203	-769.8704223632812	-645.2987670898438	485.9115600585938	-552.1953125	-745.1372680664062	726.4998168945312	-510.3082885742188	-562.602783203125	42.8346061706543	-586.4993286132812	-595.8953857421875	371.5309448242188	-560.7514038085938	-377.7210083007812	105.8105773925781	-620.35498046875	-425.4554138183594	83.95350646972656	-664.9888916015625	-462.6352233886719	62.20013046264648	-554.82275390625	-606.2097778320312	25.42005348205566	-638.4407348632812	
205	2.04	-942.6560668945312	959.7694091796875	-629.5532836914062	-925.3014526367188	959.5242309570312	-803.5806274414062	-910.8040771484375	1033.578979492188	-731.21435546875	-638.5707397460938	1182.843994140625	-692.5379028320312	-904.8722534179688	1148.9755859375	-743.6073608398438	-828.3839111328125	1387.142333984375	-754.2742309570312	-685.8823852539062	1290.8818359375	-709.4039916992188	-911.8616333007812	1259.495727539062	-690.75390625	-822.226806640625	1346.35498046875	-858.9363403320312	-722.6707153320312	1342.938232421875	-888.1449584960938	-739.9525146484375	1226.50146484375	-966.48828125	-739.0762939453125	1032.207641601562	-982.15234375	-808.5175170898438	1002.140808105469	-936.4367065429688	-552.9863891601562	950.180419921875	-896.7017822265625	-554.6096801757812	900.8447265625	-951.01171875	-672.60546875	964.5779418945312	-975.8370361328125	-405.5029602050781	851.6404418945312	-852.6282348632812	-484.7183532714844	855.910888671875	-926.5079956054688	-458.7847900390625	910.247314453125	-896.8941650390625	-804.4200439453125	1366.352172851562	-583.7433471679688	-839.9784545898438	1317.765014648438	-522.09521484375	-945.662353515625	1077.281616210938	-477.8311462402344	-938.0711059570312	1062.471801757812	-571.0765991210938	-908.3969116210938	830.095947265625	-472.3337097167969	-974.499267578125	849.4660034179688	-422.9732360839844	-949.9459228515625	1009.588134765625	-452.3532409667969	-966.4366455078125	652.2335815429688	-465.8722534179688	-927.1788940429688	714.9166259765625	-440.9609375	-989.0498657226562	736.48486328125	-412.1826171875	-833.811767578125	1531.276000976562	-696.4358520507812	-628.6268920898438	1579.852416992188	-729.42724609375	-670.7843017578125	1576.393432617188	-645.874267578125	-768.028564453125	1526.128784179688	-826.5159912109375	-856.162353515625	904.1590576171875	-895.138916015625	-848.8334350585938	910.0943603515625	-519.8670654296875	-727.9488525390625	906.883056640625	-586.0631713867188	-719.3768920898438	894.8624267578125	-838.2545776367188	-922.0979614257812	451.1534118652344	-850.87158203125	-882.1222534179688	586.794677734375	-874.2156982421875	-1157.116821289062	62.57568359375	-828.8063354492188	-1044.002319335938	253.3570861816406	-851.0621337890625	-954.1643676757812	37.43517303466797	-769.6172485351562	-1024.99853515625	32.72040939331055	-728.1719970703125	-1037.739135742188	42.76708221435547	-840.7205200195312	-1205.303833007812	70.01869964599609	-770.8572387695312	-636.6879272460938	484.939208984375	-551.391845703125	-736.4729614257812	725.1639404296875	-508.5137634277344	-561.36376953125	41.30759811401367	-588.2679443359375	-588.9373779296875	369.48583984375	-560.3564453125	-374.9112548828125	100.1901626586914	-620.0773315429688	-422.6789245605469	79.59442901611328	-665.3519897460938	-461.3481750488281	58.48057556152344	-555.541748046875	-605.23681640625	25.09851264953613	-640.6431274414062	
206	2.05	-933.615234375	958.955078125	-627.5364379882812	-915.784423828125	958.5869140625	-801.5645141601562	-901.5518188476562	1031.94091796875	-729.4883422851562	-630.3492431640625	1182.083862304688	-689.4866333007812	-896.0700073242188	1147.056518554688	-741.9393310546875	-820.7723388671875	1385.670776367188	-752.0333251953125	-677.9199829101562	1289.98388671875	-706.4406127929688	-903.9945068359375	1257.35498046875	-689.211181640625	-813.899658203125	1345.050659179688	-856.7453002929688	-714.1597290039062	1342.115966796875	-885.4669189453125	-730.7393188476562	1225.44580078125	-963.6942138671875	-728.8250732421875	1031.345581054688	-979.308837890625	-798.1151733398438	1000.778381347656	-933.6651611328125	-542.439208984375	949.9171752929688	-893.84375	-543.8103637695312	901.2236938476562	-948.6954956054688	-661.9224853515625	964.2346801757812	-973.2418212890625	-394.6566772460938	851.3046875	-850.3807983398438	-473.3739929199219	856.27783203125	-924.528076171875	-448.0379638671875	910.2411499023438	-894.02685546875	-797.7220458984375	1364.63720703125	-581.3859252929688	-833.5661010742188	1315.810180664062	-520.064208984375	-938.6776733398438	1074.989868164062	-476.5418701171875	-930.0282592773438	1059.952880859375	-569.6317749023438	-902.2501220703125	827.8812255859375	-469.5782470703125	-968.9202270507812	847.6588134765625	-421.3423461914062	-943.28955078125	1007.497375488281	-450.8547973632812	-961.4925537109375	650.2997436523438	-463.5783081054688	-922.1592407226562	712.83984375	-438.36669921875	-984.1768188476562	734.778076171875	-410.4141845703125	-826.5712280273438	1530.611450195312	-694.2947998046875	-621.2000732421875	1578.822509765625	-726.326171875	-663.7474975585938	1575.515991210938	-642.937255859375	-760.1284790039062	1525.236450195312	-824.0390014648438	-846.4727172851562	903.0245971679688	-892.9324340820312	-840.1026611328125	909.2010498046875	-517.5977783203125	-719.1033935546875	905.7267456054688	-583.6088256835938	-709.80859375	893.4224853515625	-835.7925415039062	-916.4408569335938	451.185302734375	-849.9500122070312	-875.006103515625	586.4459838867188	-872.8641357421875	-1156.129272460938	64.95303344726562	-829.764892578125	-1040.861938476562	254.9531707763672	-851.1995239257812	-954.1925659179688	37.51900863647461	-769.698486328125	-1024.822509765625	33.40471649169922	-728.4290161132812	-1037.148803710938	42.90359878540039	-841.0779418945312	-1204.4775390625	73.57958221435547	-772.0807495117188	-627.7515258789062	484.2167053222656	-550.4800415039062	-727.4082641601562	724.0756225585938	-506.7799682617188	-560.55224609375	40.20799255371094	-589.7029418945312	-581.7767944335938	367.6905517578125	-559.930908203125	-372.5172119140625	94.34516906738281	-620.3482055664062	-420.5194396972656	74.97770690917969	-666.0380859375	-460.3441162109375	54.95559692382812	-556.4208984375	-604.7520751953125	25.18569564819336	-642.4234008789062	
207	2.06	-924.3244018554688	958.4713745117188	-625.4005737304688	-905.9841918945312	957.836669921875	-799.4375	-892.047607421875	1030.510375976562	-727.6718139648438	-621.9313354492188	1181.593505859375	-686.371337890625	-887.0533447265625	1145.324462890625	-740.2111206054688	-813.0403442382812	1384.401000976562	-749.7225341796875	-669.817138671875	1289.318481445312	-703.3935546875	-895.9832153320312	1255.34912109375	-687.6354370117188	-805.425537109375	1343.977294921875	-854.487548828125	-705.4806518554688	1341.551879882812	-882.711669921875	-721.3576049804688	1224.637329101562	-960.800048828125	-718.571044921875	1030.71533203125	-976.3085327148438	-787.7548217773438	999.7365112304688	-930.732177734375	-532.1060180664062	949.3318481445312	-890.8413696289062	-533.3211059570312	901.4306640625	-946.3576049804688	-651.436279296875	963.9835815429688	-970.5357666015625	-384.1900329589844	850.2847900390625	-848.2660522460938	-462.4014282226562	856.320068359375	-922.65283203125	-437.5875549316406	909.7542114257812	-891.1094360351562	-790.9673461914062	1363.085693359375	-578.9786376953125	-827.0333862304688	1313.962524414062	-517.9744262695312	-931.364013671875	1072.707397460938	-475.1528625488281	-921.6373901367188	1057.450561523438	-568.0726318359375	-895.660888671875	825.7125244140625	-466.758544921875	-962.884521484375	845.8851318359375	-419.6189575195312	-936.252197265625	1005.428100585938	-449.2535095214844	-956.0105590820312	648.3942260742188	-461.1368408203125	-916.6237182617188	710.817138671875	-435.6601867675781	-978.7914428710938	733.11279296875	-408.5313110351562	-819.2734375	1530.167724609375	-692.048583984375	-613.76123046875	1578.0830078125	-723.1474609375	-656.67919921875	1574.92431640625	-639.912841796875	-752.17236328125	1524.599365234375	-821.46337890625	-836.4926147460938	902.0552978515625	-890.5811767578125	-831.0848999023438	908.719970703125	-515.177001953125	-710.0044555664062	904.8870239257812	-581.035400390625	-699.9249267578125	892.1945190429688	-833.17822265625	-910.2603149414062	451.354248046875	-848.9998779296875	-867.430908203125	586.2504272460938	-871.4115600585938	-1154.894653320312	67.68263244628906	-830.9214477539062	-1037.312377929688	256.7894897460938	-851.4096069335938	-954.1890258789062	37.61066055297852	-769.7957153320312	-1024.569213867188	34.21767807006836	-728.7391967773438	-1036.432861328125	43.0455322265625	-841.4827880859375	-1203.417236328125	77.62870788574219	-773.5380249023438	-618.4772338867188	483.7760925292969	-549.4395751953125	-717.96875	723.28662109375	-505.0953369140625	-559.8392333984375	39.56616973876953	-590.7236938476562	-574.2839965820312	366.2614135742188	-559.4656982421875	-370.2577514648438	88.57170104980469	-621.0057983398438	-418.6708374023438	70.34217071533203	-666.8908081054688	-459.3290405273438	51.72475051879883	-557.367919921875	-604.36669921875	25.70499229431152	-643.7242431640625	
